<?xml version="1.0" encoding="utf-8"?>
<!-- Generator: Adobe Illustrator 22.1.0, SVG Export Plug-In . SVG Version: 6.00 Build 0)  -->
<svg version="1.1" id="Layer_1" xmlns="http://www.w3.org/2000/svg" xmlns:xlink="http://www.w3.org/1999/xlink" x="0px" y="0px"
	 viewBox="0 0 38.8 34.4" style="enable-background:new 0 0 38.8 34.4;" xml:space="preserve">
<style type="text/css">
	.st0{fill:#0EA94E;}
	.st1{fill:#FFFFFF;}
	.st2{fill:#48515A;stroke:#FFFFFF;stroke-width:2;stroke-linecap:round;stroke-miterlimit:10;}
	.st3{fill:none;stroke:#BBBDBF;stroke-width:2;stroke-linecap:round;stroke-miterlimit:10;}
	.st4{fill:#232C3B;}
	.st5{font-family:'OpenSans-CondensedBold';}
	.st6{font-size:11px;}
	.st7{fill:#48515A;}
	.st8{fill:#49525B;}
	.st9{fill:#74CEDF;}
	.st10{fill:none;stroke:#48515A;stroke-width:2;stroke-miterlimit:10;}
	.st11{fill:#FFD15E;}
	.st12{fill:#E6E7E7;}
	.st13{fill:none;stroke:#6D6E70;stroke-width:2;stroke-linecap:round;stroke-miterlimit:10;}
</style>
<g>
	<g>
		<g>
			<path class="st4" d="M38.1,34.4H0.7c-0.4,0-0.7-0.3-0.7-0.7V5.5c0-0.4,0.3-0.7,0.7-0.7h37.4c0.4,0,0.7,0.3,0.7,0.7v28.3
				C38.8,34.1,38.5,34.4,38.1,34.4z M1.4,33h36V6.2h-36V33z"/>
			<path class="st4" d="M23.7,6.2h-8.6c-0.4,0-0.7-0.3-0.7-0.7V1.6C14.4,0.7,15.1,0,16,0h6.9c0.9,0,1.6,0.7,1.6,1.6v3.9
				C24.4,5.9,24.1,6.2,23.7,6.2z M15.8,4.8H23V1.6c0-0.1-0.1-0.2-0.2-0.2H16c-0.1,0-0.2,0.1-0.2,0.2V4.8z"/>
		</g>
		<g>
			<path class="st0" d="M4.2,32.3c-1.2,0-2.1-0.9-2.1-2.1V9c0-1.2,0.9-2.1,2.1-2.1h30.4c1.2,0,2.1,0.9,2.1,2.1v21.3
				c0,1.2-0.9,2.1-2.1,2.1H4.2z"/>
			<path class="st1" d="M34.6,7.6C35.4,7.6,36,8.2,36,9v21.3c0,0.8-0.6,1.4-1.4,1.4H4.2c-0.8,0-1.4-0.6-1.4-1.4V9
				c0-0.8,0.6-1.4,1.4-1.4H34.6 M34.6,6.2H4.2C2.7,6.2,1.4,7.4,1.4,9v21.3c0,1.5,1.3,2.8,2.8,2.8h30.4c1.5,0,2.8-1.3,2.8-2.8V9
				C37.4,7.4,36.2,6.2,34.6,6.2L34.6,6.2z"/>
		</g>
	</g>
	<text transform="matrix(1 0 0 1 6.4002 23.7587)" class="st1 st5 st6">EQP08</text>
</g>
</svg>
