<?xml version="1.0" encoding="utf-8"?>
<!-- Generator: Adobe Illustrator 22.1.0, SVG Export Plug-In . SVG Version: 6.00 Build 0)  -->
<svg version="1.1" id="Layer_1" xmlns="http://www.w3.org/2000/svg" xmlns:xlink="http://www.w3.org/1999/xlink" x="0px" y="0px"
	 viewBox="0 0 40.5 67.2" style="enable-background:new 0 0 40.5 67.2;" xml:space="preserve">
<style type="text/css">
	.st0{fill:#0EA94E;}
	.st1{fill:#FFFFFF;}
	.st2{fill:#48515A;stroke:#FFFFFF;stroke-width:2;stroke-linecap:round;stroke-miterlimit:10;}
	.st3{fill:none;stroke:#BBBDBF;stroke-width:2;stroke-linecap:round;stroke-miterlimit:10;}
	.st4{fill:#232C3B;}
	.st5{fill:#48515A;}
	.st6{fill:#49525B;}
	.st7{fill:#74CEDF;}
	.st8{fill:none;stroke:#48515A;stroke-width:2;stroke-miterlimit:10;}
	.st9{fill:#FFD15E;}
	.st10{fill:#E6E7E7;}
	.st11{fill:none;stroke:#6D6E70;stroke-width:2;stroke-linecap:round;stroke-miterlimit:10;}
</style>
<g>
	<g>
		<g>
			<path class="st0" d="M11.3,66.5c-0.6,0-1.2-0.4-1.7-1c-0.6-0.9-0.7-2.1-0.3-3.1l9-22h-17c-0.3,0-0.5-0.1-0.6-0.4
				c-0.1-0.2-0.1-0.5,0-0.7L26.4,1.7c0.4-0.6,1-1,1.6-1c0.6,0,1.2,0.4,1.7,1c0.6,0.9,0.7,2,0.3,3.1l-8.7,21.9h17.8
				c0.3,0,0.5,0.1,0.6,0.4s0.1,0.5-0.1,0.7L12.9,65.6C12.5,66.2,11.9,66.5,11.3,66.5z"/>
			<path class="st1" d="M28.1,1.4c1,0,1.9,1.5,1.3,3.1l-9.1,22.9h18.9L12.3,65.2c-0.3,0.4-0.7,0.6-1,0.6c-1,0-1.9-1.6-1.3-3.1
				l9.4-23h-18L27,2.1C27.3,1.6,27.7,1.4,28.1,1.4 M28.1,0c-0.5,0-1.4,0.2-2.2,1.3L0.2,38.9c-0.3,0.4-0.3,1-0.1,1.4
				c0.2,0.5,0.7,0.7,1.2,0.7h15.9l-8.6,21c-0.5,1.3-0.4,2.7,0.3,3.8c0.6,0.8,1.4,1.3,2.3,1.3c0.8,0,1.6-0.4,2.2-1.2l26.8-37.8
				c0.3-0.4,0.3-1,0.1-1.5S39.7,26,39.1,26H22.3l8.3-21c0.5-1.3,0.4-2.7-0.3-3.7C29.8,0.5,28.9,0,28.1,0L28.1,0z"/>
		</g>
	</g>
</g>
</svg>
