<?xml version="1.0" encoding="utf-8"?>
<!-- Generator: Adobe Illustrator 22.1.0, SVG Export Plug-In . SVG Version: 6.00 Build 0)  -->
<svg version="1.1" id="Layer_1" xmlns="http://www.w3.org/2000/svg" xmlns:xlink="http://www.w3.org/1999/xlink" x="0px" y="0px"
	 viewBox="0 0 118.9 128.9" style="enable-background:new 0 0 118.9 128.9;" xml:space="preserve">
<style type="text/css">
	.st0{fill:#0EA94E;}
	.st1{fill:#FFFFFF;}
	.st2{fill:#48515A;stroke:#FFFFFF;stroke-width:2;stroke-linecap:round;stroke-miterlimit:10;}
	.st3{fill:none;stroke:#BBBDBF;stroke-width:2;stroke-linecap:round;stroke-miterlimit:10;}
	.st4{fill:#232C3B;}
	.st5{fill:#48515A;}
	.st6{fill:#49525B;}
	.st7{fill:#74CEDF;}
	.st8{fill:none;stroke:#48515A;stroke-width:2;stroke-miterlimit:10;}
	.st9{fill:#FFD15E;}
	.st10{fill:#E6E7E7;}
	.st11{font-family:'OpenSans-CondensedBold';}
	.st12{font-size:14px;}
	.st13{font-size:11px;}
	.st14{fill:none;stroke:#6D6E70;stroke-width:2;stroke-linecap:round;stroke-miterlimit:10;}
</style>
<g>
	<g>
		<g>
			<g>
				<g>
					<g>
						<g>
							<polygon class="st5" points="8,74 6,74 6,26.2 36,44.2 36,26.2 67.8,45.4 67.8,73 65.8,73 65.8,46.6 38,29.8 38,47.8 8,29.8 
															"/>
						</g>
					</g>
					<g>
						<g>
							<g>
								<g>
									<polygon class="st6" points="28,41 24.9,2 20.8,2 18,34.4 16,32.9 18.9,0 26.8,0 26.8,0.9 30,40.9 									"/>
								</g>
							</g>
						</g>
					</g>
					<g>
						<g>
							<g>
								<g>
									<polygon class="st6" points="58,41 54.9,2 50.8,2 48,34.4 46,32.9 48.9,0 56.8,0 60,40.9 									"/>
								</g>
							</g>
						</g>
					</g>
					<g>
						<g>
							<rect x="46" y="52" class="st7" width="4" height="16"/>
						</g>
					</g>
					<g>
						<g>
							<rect x="54" y="52" class="st7" width="4" height="16"/>
						</g>
					</g>
					<g>
						<g>
							<rect x="16" y="52" class="st7" width="4" height="16"/>
						</g>
					</g>
					<g>
						<g>
							<rect x="24" y="52" class="st7" width="4" height="16"/>
						</g>
					</g>
				</g>
				<g>
					<g>
						<path class="st5" d="M92,102H0V73h92V102z M2,100h88V75H2V100z"/>
					</g>
				</g>
				<g>
					<g>
						<rect x="6" y="80" class="st7" width="4" height="16"/>
					</g>
				</g>
				<g>
					<g>
						<rect x="14" y="80" class="st7" width="4" height="16"/>
					</g>
				</g>
				<g>
					<g>
						<rect x="22" y="80" class="st7" width="4" height="16"/>
					</g>
				</g>
				<g>
					<g>
						<rect x="30" y="80" class="st7" width="4" height="16"/>
					</g>
				</g>
				<g>
					<g>
						<rect x="56" y="86" class="st9" width="28" height="15"/>
					</g>
				</g>
				<g>
					<g>
						<path class="st6" d="M88,102H52V82h36V102z M54,100h32V84H54V100z"/>
					</g>
				</g>
				<g>
					<g>
						<rect x="53" y="88" class="st6" width="34" height="2"/>
					</g>
				</g>
				<g>
					<g>
						<rect x="53" y="94" class="st6" width="34" height="2"/>
					</g>
				</g>
			</g>
		</g>
	</g>
	<g>
		<polygon class="st10" points="69.7,10 69.7,71 94,71 94,102 118.9,126.9 118.9,10 		"/>
	</g>
	<polygon class="st5" points="0,128.9 116.9,128.9 92,104 0,104 	"/>
	<text transform="matrix(1 0 0 1 16.6973 121.7251)" class="st1 st11 st12">SEP01</text>
	<text transform="matrix(1 0 0 1 72.7084 25.5331)"><tspan x="0" y="0" class="st5 st11 st13">438V</tspan><tspan x="0" y="13.5" class="st5 st11 st13">1.205A</tspan><tspan x="0" y="27.1" class="st5 st11 st13">527,7KW</tspan><tspan x="0" y="40.6" class="st5 st11 st13">10.342Wh</tspan></text>
	<polyline class="st14" points="82.1,122.1 70.8,110.8 59.5,122.1 	"/>
</g>
</svg>
